# AST/ASF file generated using VICON BodyLanguage
# -----------------------------------------------
:version 1.10
:name VICON
:units
  mass 1.0
  length 0.45
  angle deg
:documentation
   .ast/.asf automatically generated from VICON data using
   VICON BodyBuilder and BodyLanguage model FoxedUp or BRILLIANT.MOD
:root
   order TX TY TZ RX RY RZ
   axis XYZ
   position 0 0 0  
   orientation 0 0 0 
:bonedata
  begin
     id 1 
     name lhipjoint
     direction 0.575328 -0.747301 0.332475 
     length 2.40933 
     axis 0 0 0  XYZ
  end
  begin
     id 2 
     name lfemur
     direction 0.34202 -0.939693 0  
     length 7.31453  
     axis 0 0 20  XYZ
    dof rx ry rz
    limits (-160.0 20.0)
           (-70.0 70.0)
           (-60.0 70.0)
  end
  begin
     id 3 
     name ltibia
     direction 0.34202 -0.939693 0   
     length 7.82185   
     axis 0 0 20   XYZ
    dof rx
    limits (-10.0 170.0)
  end
  begin
     id 4 
     name lfoot
     direction 0.0795993 -0.218697 0.972541   
     length 2.19173   
     axis -90 7.62852e-016 20   XYZ
    dof rx rz
    limits (-45.0 90.0)
           (-70.0 20.0)
  end
  begin
     id 5 
     name ltoes
     direction 1.53537e-011 -4.21894e-011 1   
     length 1.10023   
     axis -90 7.62852e-016 20   XYZ
    dof rx
    limits (-90.0 20.0)
  end
  begin
     id 6 
     name rhipjoint
     direction -0.513884 -0.783789 0.348708   
     length 2.29716  
     axis 0 0 0  XYZ 
  end
  begin
     id 7 
     name rfemur
     direction -0.34202 -0.939693 0   
     length 7.59573   
     axis 0 0 -20   XYZ
    dof rx ry rz
    limits (-160.0 20.0)
           (-70.0 70.0)
           (-70.0 60.0)
  end
  begin
     id 8 
     name rtibia
     direction -0.34202 -0.939693 0   
     length 7.66402   
     axis 0 0 -20   XYZ
    dof rx
    limits (-10.0 170.0)
 end
 begin
     id 9 
     name rfoot
     direction -0.137793 -0.378584 0.915253   
     length 2.27056  
     axis -90 -7.62852e-016 -20   XYZ
    dof rx rz
    limits (-45.0 90.0)
           (-20.0 70.0)
  end
  begin
     id 10 
     name rtoes
     direction -1.53493e-011 -4.22159e-011 1   
     length 1.11766   
     axis -90 -7.62852e-016 -20   XYZ
    dof rx
    limits (-90.0 20.0)
  end
  begin
     id 11 
     name lowerback
     direction -0.00732775 0.998356 -0.05685   
     length 2.16513   
     axis 0 0 0   XYZ
    dof rx ry rz
    limits (-20.0 45.0)
           (-30.0 30.0)
           (-30.0 30.0)
  end
  begin
     id 12 
     name upperback
     direction 0.0218081 0.999627 -0.0164647   
     length 2.16755   
     axis 0 0 0   XYZ
    dof rx ry rz
    limits (-20.0 45.0)
           (-30.0 30.0)
           (-30.0 30.0)
  end
  begin
     id 13 
     name thorax
     direction 0.02365 0.999661 0.0108914   
     length 2.16932   
     axis 0 0 0   XYZ
    dof rx ry rz
    limits (-20.0 45.0)
           (-30.0 30.0)
           (-30.0 30.0)
  end
  begin
     id 14 
     name lowerneck
     direction -0.0523929 0.978385 0.200044   
     length 1.63877   
     axis 0 0 0   XYZ
    dof rx ry rz
    limits (-20.0 45.0)
           (-30.0 30.0)
           (-30.0 30.0)
  end
  begin
     id 15 
     name upperneck
     direction 0.0448674 0.981321 -0.187074   
     length 1.69014   
     axis 0 0 0   XYZ
    dof rx ry rz
    limits (-20.0 45.0)
           (-30.0 30.0)
           (-30.0 30.0)
  end
  begin
     id 16
     name head
     direction 0.0199089 0.996118 -0.0857429  
     length 1.70094  
     axis 0 0 0   XYZ
    dof rx ry rz
    limits (-20.0 45.0)
           (-30.0 30.0)
           (-30.0 30.0)
  end
  begin
     id 17 
     name lclavicle
     direction 0.940366 0.30191 -0.156722  
     length 3.37521  
     axis 0 0 0   XYZ
    dof ry rz
    limits (-20.0 10.0)
           (0.0 20.0)
  end
  begin
     id 18 
     name lhumerus
     direction 1 -4.4897e-011 -1.7911e-027   
     length 5.25287   
     axis 180 -30 -90   XYZ
    dof rx ry rz
    limits (-60.0 90.0)
           (-90.0 90.0)
           (-90.0 90.0)
  end
  begin
     id 19
     name lradius
     direction 1 -4.48951e-011 1.04424e-027   
     length 3.51014   
     axis 180 -30 -90   XYZ
    dof rx
    limits (-10.0 170.0)
  end
  begin
     id 20
     name lwrist
     direction 1 -4.48997e-011 -9.5942e-028   
     length 1.75507   
     axis 8.48502e-016 90 90   XYZ
    dof ry
    limits (-180.0 0.0)
 end
  begin
     id 21 
     name lhand
     direction 1 -4.48831e-011 -1.90777e-027   
     length 0.706179   
     axis 1.22306e-015 90 90   XYZ
    dof rx rz
    limits (-90.0 90.0)
           (-45.0 45.0)
  end
  begin
     id 22 
     name lfingers
     direction 1 -4.49108e-011 -3.85244e-027   
     length 0.569339   
     axis 2.44611e-015 90 90   XYZ
    dof rx
    limits (0.0 90.0)
  end
  begin
     id 23
     name lthumb
     direction 0.707107 -6.34953e-011 0.707107   
     length 0.817461   
     axis -90 45 -1.62303e-014   XYZ
    dof rx rz
    limits (-45.0 45.0)
           (-45.0 45.0)
  end
  begin
     id 24 
     name rclavicle
     direction -0.905329 0.382405 -0.184787   
     length 3.30787  
     axis 0 0 0   XYZ 
    dof ry rz
    limits (-10.0 20.0)
           (-20.0 0.0)
  end
  begin
     id 25 
     name rhumerus
     direction -1 -4.48953e-011 -9.15316e-029  
     length 5.28721   
     axis 180 30 90   XYZ
    dof rx ry rz
    limits (-90.0 60.0)
           (-90.0 90.0)
           (-90.0 90.0)
  end
  begin
     id 26 
     name rradius
     direction -1 -4.48987e-011 9.37824e-028   
     length 3.50544   
     axis 180 30 90   XYZ
    dof rx
    limits (-10.0 170.0)
  end
  begin
     id 27 
     name rwrist
     direction -1 -4.48967e-011 -9.58414e-028   
     length 1.75272   
     axis 8.48502e-016 -90 -90   XYZ
    dof ry
    limits (-180.0 0.0)
  end
  begin
     id 28
     name rhand
     direction -1 -4.48904e-011 -1.91266e-027   
     length 0.884996   
     axis 1.22306e-015 -90 -90   XYZ
    dof rx rz
    limits (-90.0 90.0)
           (-45.0 45.0)
  end
  begin
     id 29
     name rfingers
     direction -1 -4.4909e-011 -3.85015e-027   
     length 0.713507   
     axis 2.44611e-015 -90 -90   XYZ
    dof rx
    limits (0.0 90.0)
  end
  begin
     id 30
     name rthumb
     direction -0.707107 -6.34853e-011 0.707107   
     length 1.02446   
     axis -90 -45 1.62303e-014   XYZ
    dof rx rz
    limits (-45.0 45.0)
           (-45.0 45.0)
  end
:hierarchy
  begin
    root lhipjoint rhipjoint lowerback
    lhipjoint lfemur
    lfemur ltibia
    ltibia lfoot
    lfoot ltoes
    rhipjoint rfemur
    rfemur rtibia
    rtibia rfoot
    rfoot rtoes
    lowerback upperback
    upperback thorax
    thorax lowerneck lclavicle rclavicle
    lowerneck upperneck
    upperneck head
    lclavicle lhumerus
    lhumerus lradius
    lradius lwrist
    lwrist lhand lthumb
    lhand lfingers
    rclavicle rhumerus
    rhumerus rradius
    rradius rwrist
    rwrist rhand rthumb
    rhand rfingers
  end

#!OML:ASF F:\twosubjects\two\Thursday\Session 1\justin.ASF
:FULLY-SPECIFIED
:DEGREES
64
root 9.28674 18.2797 2.00762 -168.44 -18.7309 -177.549
lowerback 2.24166 1.95114 -1.38681
upperback 3.07297 2.4659 1.28137
thorax 1.78079 1.14454 2.07148
lowerneck -17.3447 -0.190158 -9.46312
upperneck 34.5202 1.36172 -2.37881
head 14.9273 -1.80277 0.679776
rclavicle 6.81831e-014 -2.18663e-015
rhumerus 38.1013 -8.15515 -61.9926
rradius 71.9304
rwrist 10.3478
rhand -18.8739 9.53269
rfingers 7.12502
rthumb 7.42688 -20.3169
lclavicle 6.81831e-014 -2.18663e-015
lhumerus -33.4306 3.68754 84.6288
lradius 41.8708
lwrist -2.22328
lhand -2.74009 36.7046
lfingers 7.12502
lthumb 22.9634 65.3569
rfemur -15.7941 -6.13807 25.7713
rtibia 27.7935
rfoot -20.9385 -16.4821
rtoes -9.7944
lfemur -17.5215 1.23704 -12.455
ltibia 18.4402
lfoot -8.7611 1.15302
ltoes -12.6375
65
root 9.25153 18.2787 2.01469 -168.195 -18.7852 -177.672
lowerback 2.10428 1.81726 -1.59135
upperback 3.03923 2.29137 1.28905
thorax 1.82299 1.05463 2.19959
lowerneck -17.3342 -0.0720062 -9.87068
upperneck 34.4758 1.60458 -2.18892
head 14.8906 -1.72702 0.870541
rclavicle 6.36111e-014 -7.65321e-015
rhumerus 38.2904 -7.95589 -62.0291
rradius 71.6986
rwrist 9.95394
rhand -19.2502 9.80434
rfingers 7.12502
rthumb 7.06359 -20.0578
lclavicle 6.36111e-014 -7.65321e-015
lhumerus -33.2945 3.6194 84.5482
lradius 42.5805
lwrist -1.65579
lhand -3.23544 36.4413
lfingers 7.12502
lthumb 22.488 65.1519
rfemur -16.1719 -6.51208 25.5307
rtibia 28.078
rfoot -21.0048 -16.1829
rtoes -9.21441
lfemur -17.787 1.34517 -12.6791
ltibia 18.4965
lfoot -9.02231 0.793877
ltoes -9.33792
66
root 9.22295 18.2742 2.01807 -168.193 -18.7508 -177.624
lowerback 2.11838 1.88185 -1.67786
upperback 3.04765 2.37603 1.30106
thorax 1.81571 1.09487 2.2593
lowerneck -17.255 -0.276008 -9.94089
upperneck 34.7611 1.16479 -1.88887
head 15.0189 -1.90282 0.925979
rclavicle 4.57205e-014 -1.63003e-014
rhumerus 38.1147 -8.09772 -61.8107
rradius 71.4951
rwrist 9.59927
rhand -20.1746 9.95808
rfingers 7.12502
rthumb 6.17126 -19.932
lclavicle 4.57205e-014 -1.63003e-014
lhumerus -33.0283 3.32674 84.5095
lradius 43.2215
lwrist -1.17939
lhand -3.03037 36.0747
lfingers 7.12502
lthumb 22.6848 64.7614
rfemur -16.3119 -6.67311 25.4526
rtibia 28.3976
rfoot -21.2605 -15.9322
rtoes -7.91988
lfemur -17.8721 1.83042 -12.7476
ltibia 18.6381
lfoot -9.53712 0.312674
ltoes -13.4561
67
root 9.19123 18.273 2.01993 -168.314 -18.6475 -177.839
lowerback 2.31584 1.91921 -2.07132
upperback 3.09605 2.41672 1.27398
thorax 1.73845 1.10678 2.44546
lowerneck -17.0143 -0.278754 -9.93731
upperneck 34.8917 1.07086 -1.87133
head 15.0283 -1.95764 0.912612
rclavicle 1.84373e-014 9.93923e-016
rhumerus 38.1196 -8.16086 -61.5665
rradius 71.3512
rwrist 9.29004
rhand -20.5783 10.0494
rfingers 7.12502
rthumb 5.78146 -19.8517
lclavicle 1.84373e-014 9.93923e-016
lhumerus -32.8352 3.03339 84.4868
lradius 43.8574
lwrist -1.04147
lhand -2.91586 36.3965
lfingers 7.12502
lthumb 22.7947 65.0696
rfemur -16.1013 -6.48818 24.9935
rtibia 28.5786
rfoot -21.8226 -15.6895
rtoes -6.29392
lfemur -17.6781 2.086 -13.0699
ltibia 18.7481
lfoot -10.1442 -0.0132661
ltoes -16.1658
68
root 9.15257 18.2824 2.02107 -168.527 -18.6351 -177.905
lowerback 2.47092 1.79954 -2.32419
upperback 3.18447 2.24372 1.35305
thorax 1.74037 1.01023 2.66733
lowerneck -16.7998 -0.187893 -10.1818
upperneck 34.7967 1.209 -1.79637
head 14.9267 -1.92143 1.00998
rclavicle -2.56432e-014 8.44835e-015
rhumerus 38.4118 -7.90518 -61.5408
rradius 71.2386
rwrist 9.20914
rhand -20.5179 9.84541
rfingers 7.12502
rthumb 5.83978 -20.0541
lclavicle -2.56432e-014 8.44835e-015
lhumerus -32.7421 3.00931 84.4547
lradius 44.5386
lwrist -0.938073
lhand -3.24123 36.5876
lfingers 7.12502
lthumb 22.4824 65.2989
rfemur -15.9305 -6.34688 24.6794
rtibia 28.9275
rfoot -22.4223 -15.6402
rtoes -6.2905
lfemur -17.2682 1.90717 -13.1375
ltibia 18.6126
lfoot -10.1217 -0.50075
ltoes -12.6449
69
root 9.11782 18.2964 2.01927 -168.743 -18.6755 -177.601
lowerback 2.45975 1.75673 -2.23789
upperback 3.29525 2.17649 1.52188
thorax 1.86175 0.969369 2.79619
lowerneck -16.8401 -0.154973 -10.3447
upperneck 34.7284 1.3035 -1.72654
head 14.8985 -1.88717 1.08434
rclavicle 1.60519e-014 -2.88238e-015
rhumerus 38.8413 -8.00664 -61.7598
rradius 70.8746
rwrist 9.36571
rhand -19.9356 9.77465
rfingers 7.12502
rthumb 6.40203 -20.1086
lclavicle 1.60519e-014 -2.88238e-015
lhumerus -32.5906 2.67068 84.494
lradius 45.401
lwrist -0.736109
lhand -3.49022 36.7995
lfingers 7.12502
lthumb 22.2434 65.5395
rfemur -15.9136 -6.76899 24.8408
rtibia 29.2027
rfoot -22.6707 -15.2957
rtoes -6.62249
lfemur -17.1266 2.12631 -12.8615
ltibia 18.6803
lfoot -10.1103 -1.18299
ltoes -9.02096
70
root 9.08259 18.2634 2.03112 -168.587 -18.7092 -177.684
lowerback 2.49424 1.81823 -2.37927
upperback 3.17333 2.2647 1.48187
thorax 1.70756 1.01827 2.82954
lowerneck -16.8045 -0.227898 -10.011
upperneck 34.8006 1.21166 -2.1742
head 14.9395 -1.95606 0.821709
rclavicle -1.35621e-013 -1.2921e-015
rhumerus 38.7949 -8.44453 -61.8798
rradius 70.506
rwrist 9.80931
rhand -19.0923 9.89246
rfingers 7.12502
rthumb 7.21604 -19.9645
lclavicle -1.35621e-013 -1.2921e-015
lhumerus -32.5843 2.03892 84.5218
lradius 46.2799
lwrist -0.621141
lhand -3.73592 37.1546
lfingers 7.12502
lthumb 22.0075 65.9225
rfemur -16.2614 -7.12745 24.6259
rtibia 29.5434
rfoot -22.7563 -14.9082
rtoes -6.16909
lfemur -17.4549 2.93183 -13.2501
ltibia 18.8149
lfoot -10.5814 -1.57761
ltoes -13.9419
